<svg width="24" height="21" viewBox="0 0 24 21" fill="none" xmlns="http://www.w3.org/2000/svg">
<path d="M1.42929 8.21365L20.7931 0.178851C21.6088 -0.15968 22.5304 -0.0107584 23.1982 0.567304C23.866 1.14546 24.1452 2.03623 23.927 2.89207L22.0242 10.3542L23.927 17.8163C24.1452 18.6722 23.866 19.5629 23.1982 20.1411C22.5292 20.7204 21.6074 20.8674 20.7931 20.5295L1.42929 12.4947C0.547668 12.1289 -1.90735e-05 11.3087 -1.90735e-05 10.3542C-1.90735e-05 9.39968 0.547668 8.57946 1.42929 8.21365ZM1.96831 11.1958L21.332 19.2306C21.6577 19.3657 22.0112 19.3087 22.2777 19.0779C22.5443 18.8471 22.6514 18.5054 22.5643 18.1638L20.7522 11.0573H13.7647C13.3764 11.0573 13.0616 10.7425 13.0616 10.3541C13.0616 9.96579 13.3764 9.65098 13.7647 9.65098H20.7521L22.5643 2.54463C22.6514 2.20301 22.5443 1.86129 22.2777 1.63052C22.0112 1.39976 21.6578 1.34266 21.3321 1.47776L1.96831 9.51255C1.44682 9.72893 1.40628 10.2115 1.40628 10.3542C1.40628 10.4969 1.44682 10.9795 1.96831 11.1958Z" fill="white"/>
</svg>
