<svg width="25" height="24" viewBox="0 0 25 24" fill="none" xmlns="http://www.w3.org/2000/svg">
<path d="M20.9852 3.51469C18.7187 1.24819 15.7052 0 12.4999 0C12.4997 0 12.5 0 12.4998 0C9.29478 0 6.28109 1.24833 4.01469 3.51469C1.74823 5.78119 0.5 8.79464 0.5 12C0.500094 14.0404 1.01937 16.0459 2.00431 17.8196L0.525969 23.1075C0.457625 23.352 0.526438 23.6145 0.705969 23.794C0.8855 23.9735 1.14781 24.0423 1.3925 23.974L6.68052 22.4956C8.45408 23.4807 10.4594 24 12.5 24C15.7053 24 18.7188 22.7518 20.9853 20.4853C23.2519 18.2188 24.5 15.2053 24.5 12C24.4999 8.79459 23.2516 5.78119 20.9852 3.51469ZM12.4999 22.5938C10.6087 22.5937 8.7523 22.0888 7.13127 21.1335C7.02209 21.0692 6.89872 21.0362 6.77431 21.0362C6.71084 21.0362 6.64719 21.0448 6.58498 21.0622L2.21652 22.2834L3.4378 17.9151C3.48931 17.7309 3.46353 17.5337 3.36645 17.3689C2.41123 15.7476 1.90634 13.8911 1.90625 12C1.90625 9.17025 3.00819 6.50995 5.00909 4.50905C7.01 2.50814 9.6703 1.40625 12.4999 1.40625C18.3412 1.40625 23.0936 6.15858 23.0938 12C23.0938 17.8414 18.3414 22.5938 12.4999 22.5938Z" fill="white"/>
<path d="M17.6801 12.8992C17.2503 12.4693 16.6772 12.2326 16.0663 12.2326C15.4554 12.2326 14.8824 12.4693 14.4526 12.8991L14.1267 13.225C14.0463 13.3054 13.9382 13.3497 13.8225 13.3497C13.7067 13.3497 13.5986 13.3054 13.5181 13.2248L11.2741 10.9808C11.1937 10.9005 11.1494 10.7924 11.1494 10.6766C11.1494 10.5607 11.1936 10.4527 11.2739 10.3725L11.5999 10.0464C12.4898 9.15661 12.4898 7.70873 11.6 6.81891L10.9479 6.16664C10.518 5.73694 9.94491 5.50036 9.33409 5.50036C8.72326 5.50036 8.15016 5.73698 7.72032 6.16683L7.23413 6.65311C6.20621 7.68103 5.83309 9.21178 6.18338 10.9635C6.51305 12.6118 7.45538 14.2805 8.83684 15.6621C10.5777 17.4028 12.7949 18.4421 14.7679 18.4422H14.7683C16.0115 18.4422 17.0758 18.0352 17.8459 17.265L18.3321 16.7788C19.2219 15.889 19.2219 14.441 18.3321 13.5511L17.6801 12.8992ZM17.3378 15.7845L16.8516 16.2707C16.3509 16.7714 15.6306 17.036 14.7684 17.036H14.7681C13.1597 17.0359 11.3142 16.1505 9.83129 14.6677C8.64395 13.4803 7.83816 12.0668 7.5624 10.6877C7.30726 9.41194 7.54384 8.33226 8.22859 7.64747L8.71473 7.16123C8.87893 6.99708 9.09887 6.90666 9.33413 6.90666C9.56949 6.90666 9.78952 6.99708 9.95363 7.16114L10.6056 7.81326C10.9471 8.15484 10.9471 8.71055 10.6057 9.05208L10.2796 9.37809C9.93362 9.72403 9.74312 10.1853 9.74316 10.6768C9.74321 11.1682 9.9338 11.6295 10.2797 11.9753L12.5238 14.2193C12.8698 14.5654 13.3311 14.756 13.8226 14.756C14.3139 14.756 14.7751 14.5655 15.121 14.2195L15.4471 13.8936C15.6112 13.7294 15.8311 13.6389 16.0664 13.6389C16.3016 13.6389 16.5216 13.7294 16.6858 13.8936L17.3378 14.5456C17.6793 14.8871 17.6794 15.4429 17.3378 15.7845Z" fill="white"/>
</svg>
